<?xml version="1.0" encoding="UTF-8" standalone="no"?>
<!-- Created with Inkscape (http://www.inkscape.org/) -->

<svg
   xmlns:dc="http://purl.org/dc/elements/1.1/"
   xmlns:cc="http://creativecommons.org/ns#"
   xmlns:rdf="http://www.w3.org/1999/02/22-rdf-syntax-ns#"
   xmlns:svg="http://www.w3.org/2000/svg"
   xmlns="http://www.w3.org/2000/svg"
   xmlns:sodipodi="http://sodipodi.sourceforge.net/DTD/sodipodi-0.dtd"
   xmlns:inkscape="http://www.inkscape.org/namespaces/inkscape"
   width="192"
   height="192"
   viewBox="0 0 192 192"
   id="svg2"
   version="1.1"
   inkscape:version="0.92.4 (5da689c313, 2019-01-14)"
   sodipodi:docname="markdig.svg"
   inkscape:export-filename="C:\code\lunet\markdig\img\markdig.png"
   inkscape:export-xdpi="256"
   inkscape:export-ydpi="256">
  <defs
     id="defs4" />
  <sodipodi:namedview
     id="base"
     pagecolor="#ffffff"
     bordercolor="#666666"
     borderopacity="1.0"
     inkscape:pageopacity="0.0"
     inkscape:pageshadow="2"
     inkscape:zoom="6.275557"
     inkscape:cx="81.620292"
     inkscape:cy="119.68434"
     inkscape:document-units="px"
     inkscape:current-layer="layer1"
     showgrid="false"
     inkscape:window-width="3840"
     inkscape:window-height="2066"
     inkscape:window-x="-11"
     inkscape:window-y="-11"
     inkscape:window-maximized="1"
     units="px" />
  <metadata
     id="metadata7">
    <rdf:RDF>
      <cc:Work
         rdf:about="">
        <dc:format>image/svg+xml</dc:format>
        <dc:type
           rdf:resource="http://purl.org/dc/dcmitype/StillImage" />
        <dc:title />
      </cc:Work>
    </rdf:RDF>
  </metadata>
  <g
     inkscape:label="Layer 1"
     inkscape:groupmode="layer"
     id="layer1"
     style="display:inline"
     transform="translate(0,-860.36216)">
    <path
       style="fill:#006680;fill-opacity:1;stroke-width:1.09204066"
       d="m 34.5307,873.24547 c -1.506145,1.5557 -2.414834,3.72567 -2.403331,6.22497 l 0.04173,27.41047 -19.903814,-0.0324 c -4.824408,-0.009 -8.4381391,3.7242 -8.4300642,8.70738 0.00817,4.98312 3.6330369,8.72727 8.4573232,8.73554 l 19.903821,0.0324 -0.275791,17.12991 124.244306,-0.42328 -0.0273,-17.44297 20.80798,-0.27883 c 2.4087,0.009 4.52205,-0.92824 6.02671,-2.48239 1.50614,-1.55569 2.41486,-3.72569 2.40336,-6.225 -0.009,-4.98311 -3.63306,-8.7273 -8.45733,-8.73554 l -20.50656,0.59015 0.25961,-27.09914 c -0.31244,-2.17456 -1.213,-4.36429 -3.02472,-6.23561 -1.50705,-1.55665 -3.62738,-2.49321 -6.03475,-2.50058 l -107.054134,0.14282 c -2.408688,-0.009 -4.522059,0.92823 -6.026707,2.48237 z m 27.829505,3.83665 14.459233,0.0217 14.488635,21.31347 14.429017,-21.27019 14.45922,0.0217 0.0811,57.91281 -14.4592,-0.0217 -0.0464,-33.21443 -14.428869,21.27005 -14.488819,-21.31366 0.04632,33.21458 -14.459226,-0.0218 -0.08116,-57.91275 z"
       id="path4142"
       inkscape:connector-curvature="0" />
    <rect
       id="rect4168"
       mask="url(#a)"
       ry="0"
       height="0"
       width="0"
       x="141.51523"
       y="364.10403" />
    <rect
       id="rect4184"
       mask="url(#a)"
       ry="0"
       height="0"
       width="0"
       x="96.108383"
       y="352.01443" />
    <rect
       id="rect4200"
       mask="url(#a)"
       ry="2.1886277"
       height="0.14590852"
       width="0.17464182"
       x="87.014519"
       y="276.38696" />
    <flowRoot
       xml:space="preserve"
       id="flowRoot4797"
       style="font-style:normal;font-weight:normal;line-height:0.01%;font-family:sans-serif;letter-spacing:0px;word-spacing:0px;fill:#000000;fill-opacity:1;stroke:none;stroke-width:1px;stroke-linecap:butt;stroke-linejoin:miter;stroke-opacity:1"
       transform="matrix(0.1746417,0,0,0.1459084,499.69318,366.39614)"><flowRegion
         id="flowRegion4799"><rect
           id="rect4801"
           width="972.27185"
           height="618.71844"
           x="959.01355"
           y="-976.15039" /></flowRegion><flowPara
         id="flowPara4803"
         style="font-size:40px;line-height:1.25"> </flowPara></flowRoot>    <g
       id="g4833"
       transform="matrix(0.09510056,0,0,0.09061765,496.09965,368.83934)">
      <rect
         id="rect4823"
         height="1"
         width="1"
         x="0"
         y="0"
         style="fill:#ffffff" />
    </g>
    <g
       transform="translate(234.63786,787.55486)"
       id="g4170" />
    <path
       sodipodi:nodetypes="cccccccccccccc"
       inkscape:connector-curvature="0"
       id="path826"
       d="m 45.058494,943.54749 20.013843,88.87081 c -8.87e-4,1.4793 13.909884,7.9857 28.77803,7.9868 14.868153,0 27.732473,-6.0454 27.727033,-7.5199 l 17.1004,-89.73688 z m 35.561125,8.36596 h 25.853221 l 10e-6,42.86491 h 13.18189 l -26.108514,40.41734 -26.324515,-40.20925 13.397908,-0.20809 z"
       style="fill:#ff6600;stroke-width:1.2582258" />
    <path
       style="fill:#c83737;stroke-width:1.2582258"
       d="m 45.058494,943.54749 20.013843,88.87081 c -8.87e-4,1.4793 13.909884,7.9857 28.77803,7.9868 14.868153,0 27.732473,-6.0454 27.727033,-7.5199 l 17.1004,-89.73688 z m 35.561125,8.36596 h 25.853221 l 10e-6,42.86491 h 13.18189 l -26.108514,40.41734 -26.324515,-40.20925 13.397908,-0.20809 z"
       id="path828"
       inkscape:connector-curvature="0"
       sodipodi:nodetypes="cccccccccccccc" />
  </g>
</svg>
