<?xml version="1.0" encoding="UTF-8" standalone="no"?>
<!-- Created with Inkscape (http://www.inkscape.org/) -->

<svg
   xmlns:dc="http://purl.org/dc/elements/1.1/"
   xmlns:cc="http://creativecommons.org/ns#"
   xmlns:rdf="http://www.w3.org/1999/02/22-rdf-syntax-ns#"
   xmlns:svg="http://www.w3.org/2000/svg"
   xmlns="http://www.w3.org/2000/svg"
   xmlns:sodipodi="http://sodipodi.sourceforge.net/DTD/sodipodi-0.dtd"
   xmlns:inkscape="http://www.inkscape.org/namespaces/inkscape"
   width="192"
   height="192"
   viewBox="0 0 192 192"
   id="svg2"
   version="1.1"
   inkscape:version="0.91 r13725"
   sodipodi:docname="markdig.svg">
  <defs
     id="defs4" />
  <sodipodi:namedview
     id="base"
     pagecolor="#ffffff"
     bordercolor="#666666"
     borderopacity="1.0"
     inkscape:pageopacity="0.0"
     inkscape:pageshadow="2"
     inkscape:zoom="3.6203867"
     inkscape:cx="274.42608"
     inkscape:cy="145.36182"
     inkscape:document-units="px"
     inkscape:current-layer="g4154"
     showgrid="false"
     inkscape:window-width="2560"
     inkscape:window-height="1377"
     inkscape:window-x="-8"
     inkscape:window-y="-8"
     inkscape:window-maximized="1"
     units="px" />
  <metadata
     id="metadata7">
    <rdf:RDF>
      <cc:Work
         rdf:about="">
        <dc:format>image/svg+xml</dc:format>
        <dc:type
           rdf:resource="http://purl.org/dc/dcmitype/StillImage" />
        <dc:title></dc:title>
      </cc:Work>
    </rdf:RDF>
  </metadata>
  <g
     inkscape:label="Layer 1"
     inkscape:groupmode="layer"
     id="layer1"
     style="display:inline"
     transform="translate(0,-860.36216)">
    <g
       id="g4154"
       transform="matrix(38.543914,0,0,38.552171,-1185.0408,-955.47573)">
      <path
         style="fill:#000000"
         inkscape:connector-curvature="0"
         d="m 31.644129,50.284653 c -0.02217,0.02214 -0.04404,0.04469 -0.05945,0.0741 l -0.735055,1.351325 c -0.04175,0.07002 -0.04056,0.138759 5.12e-4,0.181019 0.0272,0.02824 0.06784,0.0361 0.11251,0.02579 0.01796,-0.0042 0.04467,-0.01031 0.06465,-0.02343 L 32.366,51.153314 c 0.02869,-0.01511 0.05106,-0.03775 0.07307,-0.05991 l 1.33603,-1.352005 -0.797174,-0.799407 -1.333959,1.342865 z"
         id="path4140" />
      <path
         inkscape:connector-curvature="0"
         id="path4142"
         d="m 33.629834,47.14509 c -0.05143,0 -0.102813,0.02035 -0.143929,0.06185 l -0.452371,0.453699 -0.339289,-0.340288 c -0.08223,-0.08249 -0.205627,-0.08249 -0.287859,0 -0.08223,0.08249 -0.08223,0.206242 0,0.288728 l 0.339289,0.340288 -0.287859,0.278382 2.128264,2.113818 0.28786,-0.288728 0.359871,0.350578 c 0.04097,0.04127 0.09255,0.06185 0.143929,0.06185 0.05143,0 0.102814,-0.02035 0.14393,-0.06185 0.08223,-0.08249 0.08223,-0.206243 0,-0.288728 l -0.359871,-0.340288 0.45237,-0.44341 c 0.03061,-0.04127 0.05143,-0.09283 0.05143,-0.154681 0,-0.05145 -0.02072,-0.103121 -0.0617,-0.144336 l -1.830134,-1.825022 c -0.04097,-0.04127 -0.09255,-0.06185 -0.143929,-0.06185 z m 0.411725,0.538446 0.246508,0.247174 -0.104933,0.599544 0.597939,-0.105213 0.246508,0.247174 -0.955889,0.958455 -0.246507,-0.247174 0.548227,-0.549696 -0.597934,0.105213 0.104933,-0.59955 -0.548232,0.549696 -0.246508,-0.247174 0.955888,-0.958454 z"
         style="fill:#000000;fill-opacity:1" />
      <rect
         y="34.228416"
         x="34.416744"
         width="0"
         height="0"
         ry="0"
         mask="url(#a)"
         id="rect4168" />
      <rect
         y="33.914825"
         x="33.238689"
         width="0"
         height="0"
         ry="0"
         mask="url(#a)"
         id="rect4184" />
      <rect
         y="31.953135"
         x="33.002754"
         width="0.004530983"
         height="0.0037847031"
         ry="0.056770544"
         mask="url(#a)"
         id="rect4200" />
      <flowRoot
         transform="matrix(0.00453098,0,0,0.0037847,43.709468,34.287871)"
         style="font-style:normal;font-weight:normal;font-size:40px;line-height:125%;font-family:sans-serif;letter-spacing:0px;word-spacing:0px;fill:#000000;fill-opacity:1;stroke:none;stroke-width:1px;stroke-linecap:butt;stroke-linejoin:miter;stroke-opacity:1"
         id="flowRoot4797"
         xml:space="preserve"><flowRegion
           id="flowRegion4799"><rect
             y="-976.15039"
             x="959.01355"
             height="618.71844"
             width="972.27185"
             id="rect4801" /></flowRegion><flowPara
           id="flowPara4803"></flowPara></flowRoot>      <g
         transform="matrix(0.00246733,0,0,0.00235052,43.616236,34.351245)"
         id="g4833">
        <rect
           style="fill:#ffffff"
           y="0"
           x="0"
           width="1"
           height="1"
           id="rect4823" />
      </g>
      <path
         style="fill:#000000;fill-opacity:1"
         d="m 33.629834,47.14509 c -0.05143,0 -0.102813,0.02035 -0.143929,0.06185 l -0.452371,0.453699 -0.339289,-0.340288 c -0.08223,-0.08249 -0.205627,-0.08249 -0.287859,0 -0.08223,0.08249 -0.08223,0.206242 0,0.288728 l 0.339289,0.340288 -0.287859,0.278382 2.128264,2.113818 0.28786,-0.288728 0.359871,0.350578 c 0.04097,0.04127 0.09255,0.06185 0.143929,0.06185 0.05143,0 0.102814,-0.02035 0.14393,-0.06185 0.08223,-0.08249 0.08223,-0.206243 0,-0.288728 l -0.359871,-0.340288 0.45237,-0.44341 c 0.03061,-0.04127 0.05143,-0.09283 0.05143,-0.154681 0,-0.05145 -0.02072,-0.103121 -0.0617,-0.144336 l -1.830134,-1.825022 c -0.04097,-0.04127 -0.09255,-0.06185 -0.143929,-0.06185 z m 0.411725,0.538446 0.246508,0.247174 -0.104933,0.599544 0.597939,-0.105213 0.246508,0.247174 -0.955889,0.958455 -0.246507,-0.247174 0.548227,-0.549696 -0.597934,0.105213 0.104933,-0.59955 -0.548232,0.549696 -0.246508,-0.247174 0.955888,-0.958454 z"
         id="path4886"
         inkscape:connector-curvature="0" />
    </g>
  </g>
</svg>
