<?xml version="1.0" encoding="UTF-8" standalone="no"?>
<!-- Created with Inkscape (http://www.inkscape.org/) -->

<svg
   xmlns:dc="http://purl.org/dc/elements/1.1/"
   xmlns:cc="http://creativecommons.org/ns#"
   xmlns:rdf="http://www.w3.org/1999/02/22-rdf-syntax-ns#"
   xmlns:svg="http://www.w3.org/2000/svg"
   xmlns="http://www.w3.org/2000/svg"
   xmlns:sodipodi="http://sodipodi.sourceforge.net/DTD/sodipodi-0.dtd"
   xmlns:inkscape="http://www.inkscape.org/namespaces/inkscape"
   width="192"
   height="192"
   viewBox="0 0 192 192"
   id="svg2"
   version="1.1"
   inkscape:version="0.91 r13725"
   sodipodi:docname="markdig.svg"
   inkscape:export-filename="C:\Code\lunet-io\markdig\markdig.png"
   inkscape:export-xdpi="93.400002"
   inkscape:export-ydpi="93.400002">
  <defs
     id="defs4" />
  <sodipodi:namedview
     id="base"
     pagecolor="#ffffff"
     bordercolor="#666666"
     borderopacity="1.0"
     inkscape:pageopacity="0.0"
     inkscape:pageshadow="2"
     inkscape:zoom="4.4374889"
     inkscape:cx="174.14769"
     inkscape:cy="93.189838"
     inkscape:document-units="px"
     inkscape:current-layer="layer1"
     showgrid="false"
     inkscape:window-width="2560"
     inkscape:window-height="1377"
     inkscape:window-x="-8"
     inkscape:window-y="-8"
     inkscape:window-maximized="1"
     units="px" />
  <metadata
     id="metadata7">
    <rdf:RDF>
      <cc:Work
         rdf:about="">
        <dc:format>image/svg+xml</dc:format>
        <dc:type
           rdf:resource="http://purl.org/dc/dcmitype/StillImage" />
        <dc:title></dc:title>
      </cc:Work>
    </rdf:RDF>
  </metadata>
  <g
     inkscape:label="Layer 1"
     inkscape:groupmode="layer"
     id="layer1"
     style="display:inline"
     transform="translate(0,-860.36216)">
    <path
       style="fill:#000000"
       d="M 75.009766 60.486328 L 34.648438 122.74414 C 33.793918 123.59769 37.647081 134.96384 37.052734 136.09766 L 4.0234375 177.69727 C 2.4142291 180.39677 3.2900484 182.21846 4.8730469 183.84766 C 5.9214414 184.93636 6.6591287 186.06887 8.3828125 185.67188 C 9.0750612 185.50987 10.104893 185.27338 10.875 184.76758 L 52.806641 151.81445 C 53.912466 151.23195 64.44071 154.77813 65.289062 153.92383 L 126.45312 111.46875 L 75.009766 60.486328 z M 89.632812 84.769531 L 103.77539 98.912109 L 79.027344 123.66016 L 86.238281 130.87109 L 48.621094 139.92383 L 57.435547 102.30859 L 64.884766 109.51758 L 89.632812 84.769531 z "
       transform="translate(0,860.36216)"
       id="path4140" />
    <path
       style="fill:#000000;fill-opacity:1"
       d="m 111.18463,862.06984 c -1.98231,0 -3.96282,0.78454 -5.54759,2.38445 L 88.200894,881.94537 75.123368,868.82653 c -3.169466,-3.18017 -7.92567,-3.18017 -11.095213,0 -3.169466,3.18017 -3.169466,7.95108 0,11.13109 l 13.077526,13.11885 -11.095212,10.73223 82.031621,81.49227 11.09525,-11.13109 13.87084,13.51554 c 1.57915,1.59105 3.56724,2.38445 5.54759,2.38445 1.98231,0 3.96285,-0.78453 5.54762,-2.38445 3.16947,-3.18017 3.16947,-7.95111 0,-11.13109 l -13.87083,-13.11884 17.43611,-17.09442 c 1.17983,-1.59105 1.98231,-3.5788 1.98231,-5.96329 0,-1.98351 -0.79863,-3.97554 -2.37816,-5.56446 l -70.54053,-70.35856 c -1.57914,-1.59105 -3.56724,-2.38446 -5.54758,-2.38446 z m 15.86949,20.75826 9.50139,9.5291 -4.04453,23.11372 23.04691,-4.05619 9.50138,9.5291 -36.8437,36.95052 -9.50135,-9.5291 21.13082,-21.19197 -23.04672,4.05619 4.04453,-23.11396 -21.131009,21.19198 -9.501383,-9.5291 36.843662,-36.95048 z"
       id="path4142"
       inkscape:connector-curvature="0" />
    <rect
       id="rect4168"
       mask="url(#a)"
       ry="0"
       height="0"
       width="0"
       x="141.51523"
       y="364.10403" />
    <rect
       id="rect4184"
       mask="url(#a)"
       ry="0"
       height="0"
       width="0"
       x="96.108383"
       y="352.01443" />
    <rect
       id="rect4200"
       mask="url(#a)"
       ry="2.1886277"
       height="0.14590852"
       width="0.17464182"
       x="87.014519"
       y="276.38696" />
    <flowRoot
       xml:space="preserve"
       id="flowRoot4797"
       style="font-style:normal;font-weight:normal;font-size:40px;line-height:125%;font-family:sans-serif;letter-spacing:0px;word-spacing:0px;fill:#000000;fill-opacity:1;stroke:none;stroke-width:1px;stroke-linecap:butt;stroke-linejoin:miter;stroke-opacity:1"
       transform="matrix(0.1746417,0,0,0.1459084,499.69318,366.39614)"><flowRegion
         id="flowRegion4799"><rect
           id="rect4801"
           width="972.27185"
           height="618.71844"
           x="959.01355"
           y="-976.15039" /></flowRegion><flowPara
         id="flowPara4803" /></flowRoot>    <g
       id="g4833"
       transform="matrix(0.09510056,0,0,0.09061765,496.09965,368.83934)">
      <rect
         id="rect4823"
         height="1"
         width="1"
         x="0"
         y="0"
         style="fill:#ffffff" />
    </g>
    <path
       inkscape:connector-curvature="0"
       id="path4886"
       d="m 111.18463,862.06984 c -1.98231,0 -3.96282,0.78454 -5.54759,2.38445 L 88.200894,881.94537 75.123368,868.82653 c -3.169466,-3.18017 -7.92567,-3.18017 -11.095213,0 -3.169466,3.18017 -3.169466,7.95108 0,11.13109 l 13.077526,13.11885 -11.095212,10.73223 82.031621,81.49227 11.09525,-11.13109 13.87084,13.51554 c 1.57915,1.59105 3.56724,2.38445 5.54759,2.38445 1.98231,0 3.96285,-0.78453 5.54762,-2.38445 3.16947,-3.18017 3.16947,-7.95111 0,-11.13109 l -13.87083,-13.11884 17.43611,-17.09442 c 1.17983,-1.59105 1.98231,-3.5788 1.98231,-5.96329 0,-1.98351 -0.79863,-3.97554 -2.37816,-5.56446 l -70.54053,-70.35856 c -1.57914,-1.59105 -3.56724,-2.38446 -5.54758,-2.38446 z m 15.86949,20.75826 9.50139,9.5291 -4.04453,23.11372 23.04691,-4.05619 9.50138,9.5291 -36.8437,36.95052 -9.50135,-9.5291 21.13082,-21.19197 -23.04672,4.05619 4.04453,-23.11396 -21.131009,21.19198 -9.501383,-9.5291 36.843662,-36.95048 z"
       style="fill:#000000;fill-opacity:1" />
    <g
       transform="translate(234.63786,787.55486)"
       id="g4170" />
    <path
       id="path4225"
       transform="translate(0,860.36216)"
       d="M 75.009766 60.486328 L 34.648438 122.74414 C 33.793918 123.59769 37.647081 134.96384 37.052734 136.09766 L 4.0234375 177.69727 C 2.4142291 180.39677 3.2900484 182.21846 4.8730469 183.84766 C 5.9214414 184.93636 6.6591287 186.06887 8.3828125 185.67188 C 9.0750612 185.50987 10.104893 185.27338 10.875 184.76758 L 52.806641 151.81445 C 53.912466 151.23195 64.44071 154.77813 65.289062 153.92383 L 126.45312 111.46875 L 75.009766 60.486328 z M 89.632812 84.769531 L 103.77539 98.912109 L 79.027344 123.66016 L 86.238281 130.87109 L 48.621094 139.92383 L 57.435547 102.30859 L 64.884766 109.51758 L 89.632812 84.769531 z "
       style="fill:#000000" />
  </g>
</svg>
