<svg width="171" height="44" viewBox="0 0 171 44" fill="none" xmlns="http://www.w3.org/2000/svg">
<path d="M8.116 0.704103C7.71777 1.1214 7.47751 1.70346 7.48055 2.37386L7.49159 9.72633L2.22894 9.71764C0.953353 9.71522 -0.00213146 10.7166 3.57096e-06 12.0533C0.00216375 13.3899 0.960592 14.3942 2.23615 14.3965L7.4988 14.4052L7.42588 19L40.2765 18.8865L40.2693 14.2076L45.771 14.1328C46.4079 14.1353 46.9667 13.8839 47.3645 13.467C47.7627 13.0497 48.003 12.4676 48 11.7972C47.9976 10.4606 47.0394 9.45623 45.7638 9.45402L40.3418 9.61232L40.4105 2.34336C40.3278 1.76007 40.0897 1.17271 39.6107 0.670753C39.2122 0.253204 38.6516 0.0019769 38.0151 0L9.70958 0.0383101C9.07271 0.0358959 8.51393 0.287292 8.11609 0.704168L8.116 0.704103ZM15.4742 1.73322L19.2973 1.73905L23.1282 7.45609L26.9432 1.75065L30.7663 1.75648L30.7878 17.2908L26.9647 17.285L26.9524 8.37564L23.1374 14.081L19.3065 8.36395L19.3187 17.2733L15.4956 17.2674L15.4742 1.73317L15.4742 1.73322Z" fill="#006680"/>
<path d="M11 19.1026L16.1307 41.947C16.1305 42.3272 19.6966 43.9997 23.5082 44C27.3197 44 30.6176 42.446 30.6162 42.067L35 19L11 19.1026ZM20.1164 21.2531H26.744L26.744 32.2716H30.1233L23.4302 42.6609L16.6817 32.3251L20.1164 32.2716V21.2531Z" fill="#FF6600"/>
<path d="M11 19.1026L16.1307 41.947C16.1305 42.3272 19.6966 43.9997 23.5082 44C27.3197 44 30.6176 42.446 30.6162 42.067L35 19L11 19.1026ZM20.1164 21.2531H26.744L26.744 32.2716H30.1233L23.4302 42.6609L16.6817 32.3251L20.1164 32.2716V21.2531Z" fill="#C83737"/>
<path d="M79.58 13.852V32H75.94V20.196L71.078 32H68.322L63.434 20.196V32H59.794V13.852H63.928L69.7 27.346L75.472 13.852H79.58ZM82.7628 24.746C82.7628 23.29 83.0488 21.9987 83.6208 20.872C84.2101 19.7453 84.9988 18.8787 85.9868 18.272C86.9921 17.6653 88.1101 17.362 89.3408 17.362C90.4154 17.362 91.3514 17.5787 92.1488 18.012C92.9634 18.4453 93.6134 18.9913 94.0988 19.65V17.596H97.7648V32H94.0988V29.894C93.6308 30.57 92.9808 31.1333 92.1488 31.584C91.3341 32.0173 90.3894 32.234 89.3148 32.234C88.1014 32.234 86.9921 31.922 85.9868 31.298C84.9988 30.674 84.2101 29.7987 83.6208 28.672C83.0488 27.528 82.7628 26.2193 82.7628 24.746ZM94.0988 24.798C94.0988 23.914 93.9254 23.16 93.5788 22.536C93.2321 21.8947 92.7641 21.4093 92.1748 21.08C91.5854 20.7333 90.9528 20.56 90.2768 20.56C89.6008 20.56 88.9768 20.7247 88.4048 21.054C87.8328 21.3833 87.3648 21.8687 87.0008 22.51C86.6541 23.134 86.4808 23.8793 86.4808 24.746C86.4808 25.6127 86.6541 26.3753 87.0008 27.034C87.3648 27.6753 87.8328 28.1693 88.4048 28.516C88.9941 28.8627 89.6181 29.036 90.2768 29.036C90.9528 29.036 91.5854 28.8713 92.1748 28.542C92.7641 28.1953 93.2321 27.71 93.5788 27.086C93.9254 26.4447 94.0988 25.682 94.0988 24.798ZM105.48 19.832C105.948 19.0693 106.555 18.4713 107.3 18.038C108.063 17.6047 108.929 17.388 109.9 17.388V21.21H108.938C107.794 21.21 106.927 21.4787 106.338 22.016C105.766 22.5533 105.48 23.4893 105.48 24.824V32H101.84V17.596H105.48V19.832ZM121.4 32L116.512 25.864V32H112.872V12.76H116.512V23.706L121.348 17.596H126.08L119.736 24.824L126.132 32H121.4ZM127.639 24.746C127.639 23.29 127.925 21.9987 128.497 20.872C129.087 19.7453 129.884 18.8787 130.889 18.272C131.895 17.6653 133.013 17.362 134.243 17.362C135.179 17.362 136.072 17.57 136.921 17.986C137.771 18.3847 138.447 18.922 138.949 19.598V12.76H142.641V32H138.949V29.868C138.499 30.5787 137.866 31.1507 137.051 31.584C136.237 32.0173 135.292 32.234 134.217 32.234C133.004 32.234 131.895 31.922 130.889 31.298C129.884 30.674 129.087 29.7987 128.497 28.672C127.925 27.528 127.639 26.2193 127.639 24.746ZM138.975 24.798C138.975 23.914 138.802 23.16 138.455 22.536C138.109 21.8947 137.641 21.4093 137.051 21.08C136.462 20.7333 135.829 20.56 135.153 20.56C134.477 20.56 133.853 20.7247 133.281 21.054C132.709 21.3833 132.241 21.8687 131.877 22.51C131.531 23.134 131.357 23.8793 131.357 24.746C131.357 25.6127 131.531 26.3753 131.877 27.034C132.241 27.6753 132.709 28.1693 133.281 28.516C133.871 28.8627 134.495 29.036 135.153 29.036C135.829 29.036 136.462 28.8713 137.051 28.542C137.641 28.1953 138.109 27.71 138.455 27.086C138.802 26.4447 138.975 25.682 138.975 24.798ZM148.562 15.88C147.921 15.88 147.384 15.6807 146.95 15.282C146.534 14.866 146.326 14.3547 146.326 13.748C146.326 13.1413 146.534 12.6387 146.95 12.24C147.384 11.824 147.921 11.616 148.562 11.616C149.204 11.616 149.732 11.824 150.148 12.24C150.582 12.6387 150.798 13.1413 150.798 13.748C150.798 14.3547 150.582 14.866 150.148 15.282C149.732 15.6807 149.204 15.88 148.562 15.88ZM150.356 17.596V32H146.716V17.596H150.356ZM160.115 17.362C161.189 17.362 162.134 17.5787 162.949 18.012C163.763 18.428 164.405 18.974 164.873 19.65V17.596H168.539V32.104C168.539 33.4387 168.27 34.626 167.733 35.666C167.195 36.7233 166.389 37.5553 165.315 38.162C164.24 38.786 162.94 39.098 161.415 39.098C159.369 39.098 157.688 38.6213 156.371 37.668C155.071 36.7147 154.334 35.4147 154.161 33.768H157.775C157.965 34.4267 158.373 34.9467 158.997 35.328C159.638 35.7267 160.409 35.926 161.311 35.926C162.368 35.926 163.226 35.6053 163.885 34.964C164.543 34.34 164.873 33.3867 164.873 32.104V29.868C164.405 30.544 163.755 31.1073 162.923 31.558C162.108 32.0087 161.172 32.234 160.115 32.234C158.901 32.234 157.792 31.922 156.787 31.298C155.781 30.674 154.984 29.7987 154.395 28.672C153.823 27.528 153.537 26.2193 153.537 24.746C153.537 23.29 153.823 21.9987 154.395 20.872C154.984 19.7453 155.773 18.8787 156.761 18.272C157.766 17.6653 158.884 17.362 160.115 17.362ZM164.873 24.798C164.873 23.914 164.699 23.16 164.353 22.536C164.006 21.8947 163.538 21.4093 162.949 21.08C162.359 20.7333 161.727 20.56 161.051 20.56C160.375 20.56 159.751 20.7247 159.179 21.054C158.607 21.3833 158.139 21.8687 157.775 22.51C157.428 23.134 157.255 23.8793 157.255 24.746C157.255 25.6127 157.428 26.3753 157.775 27.034C158.139 27.6753 158.607 28.1693 159.179 28.516C159.768 28.8627 160.392 29.036 161.051 29.036C161.727 29.036 162.359 28.8713 162.949 28.542C163.538 28.1953 164.006 27.71 164.353 27.086C164.699 26.4447 164.873 25.682 164.873 24.798Z" fill="black"/>
</svg>
